<svg width="324" height="449" viewBox="0 0 324 449" fill="none" xmlns="http://www.w3.org/2000/svg">
<g clip-path="url(#clip0_15_8)">
<path d="M291.795 172.166C291.795 172.166 277.462 176.166 250.795 135.499C238.575 116.863 227.845 97.668 215.578 82.339C201.076 64.217 184.824 51.499 167.128 51.499C125.795 51.499 81.795 119.499 81.795 119.499C81.795 119.499 75.681 129.462 67.49 141.417C52.254 163.655 27.374 192.784 3.961 177.5C3.961 177.5 13.961 193 26.461 195.5C38.961 198 56.461 198.5 76.461 179.167C96.461 159.834 133.461 116.834 133.461 116.834C133.461 116.834 182.461 61.834 211.461 111.167C219.23 124.382 228.355 134.737 235.461 143.501C254.881 167.455 268.461 176.5 268.461 176.5C268.461 176.5 287.129 177.832 291.795 172.166Z" fill="#F28D2B"/>
<path d="M270.128 179.168C270.128 179.168 289.462 192.835 303.128 185.501C316.794 178.167 325.128 141.834 310.128 116.834C295.128 91.834 269.461 96.834 269.461 96.834C269.461 96.834 250.128 102.834 241.128 113.834L257.794 137.834C257.794 137.834 282.794 114.501 292.461 122.501C302.128 130.501 300.794 140.834 300.794 145.168C300.794 149.502 303.462 167.502 292.128 172.835C292.128 172.835 285.461 177.502 268.461 177.502" fill="white"/>
<path d="M170.92 169.584C171.211 169.626 172.128 170.168 172.128 170.168C172.128 170.168 183.46 180.501 220.794 132.501L240.794 155.834C240.794 155.834 228.128 170.167 213.128 177.167C198.128 184.167 178.461 176 173.461 172C170.961 170 170.628 169.542 170.92 169.584Z" fill="white"/>
<path d="M205.794 180.835C205.794 180.835 166.795 190.168 133.461 126.168L108.128 153.739C108.128 153.739 155.794 210.836 205.794 180.835Z" fill="white"/>
<path d="M34.953 175.298C32.448 176.59 29.045 177.187 25.127 174.836C16.794 169.836 18.794 143.996 30.127 125.583C41.46 107.17 56.46 90.836 79.46 113.503L104.793 81.17C104.793 81.17 84.126 58.17 50.46 76.17C16.794 94.17 4.46 132.837 4.46 132.837C4.46 132.837 -4.873 155.504 3.46 176.837C3.46 176.837 19.002 187.251 36.03 174.67" fill="white"/>
<path d="M81.961 60.17C90.7053 60.17 97.794 53.0813 97.794 44.337C97.794 35.5927 90.7053 28.504 81.961 28.504C73.2167 28.504 66.128 35.5927 66.128 44.337C66.128 53.0813 73.2167 60.17 81.961 60.17Z" fill="white"/>
<path d="M168.965 46.337C181.025 46.337 190.801 36.5607 190.801 24.501C190.801 12.4413 181.025 2.66501 168.965 2.66501C156.905 2.66501 147.129 12.4413 147.129 24.501C147.129 36.5607 156.905 46.337 168.965 46.337Z" fill="#F28D2B"/>
<path d="M281.796 93.167C290.633 93.167 297.796 86.0036 297.796 77.167C297.796 68.3305 290.633 61.167 281.796 61.167C272.959 61.167 265.796 68.3305 265.796 77.167C265.796 86.0036 272.959 93.167 281.796 93.167Z" fill="white"/>
</g>
<path d="M28.63 227.97H19.95V219.92H28.63V227.97ZM2.24 233.22H12.11V251.91C12.11 261.01 16.66 267.52 24.43 267.52C32.06 267.52 36.61 261.01 36.61 251.91V233.22H46.48V252.82C46.48 265.84 37.03 276.62 24.36 276.62C12.04 276.62 2.24 266.26 2.24 252.82V233.22ZM84.3702 263.6C84.3702 272.21 79.0502 276.55 68.3402 276.55H67.3602V268.71H67.9902C71.9102 268.71 75.7602 265.98 75.7602 262.2C74.4302 264.37 72.1202 265.42 68.8302 265.42C59.8002 265.42 53.0802 258.56 53.0802 249.18C53.0802 239.59 59.6602 233.15 68.8302 233.15C77.8602 233.15 84.3702 240.08 84.3702 249.32V263.6ZM74.5702 249.32C74.5702 245.05 72.1202 242.04 68.6202 242.04C65.1902 242.04 62.8802 244.98 62.8802 249.11C62.8802 253.03 65.1202 256.32 68.9702 256.32C72.4702 256.32 74.5702 253.59 74.5702 249.32ZM112.65 265H103.41C95.9197 265 91.5797 260.66 91.5797 253.45V219.85H101.38V248.34C101.38 253.1 102.57 255.62 109.78 255.62H112.65V265ZM126.254 265H111.274V255.62H126.254V265ZM140.131 265H125.151V255.62H140.131V265ZM154.008 265H139.028V255.62H154.008V265ZM167.885 265H152.905V255.62H167.885V265ZM181.762 265H166.782V255.62H181.762V265ZM195.639 265H180.659V255.62H195.639V265ZM209.516 265H194.536V255.62H209.516V265ZM223.393 265H208.413V255.62H223.393V265ZM281.3 265H263.24C259.18 265 255.54 263.39 252.39 260.1C250.71 261.5 248.54 262.69 245.81 263.6C242.87 264.51 240 265 237.13 265H221.73V255.62H236.99C240.42 255.62 243.5 254.85 246.09 253.24C245.04 251.77 243.22 250.3 240.77 248.76C237.83 246.94 234.96 245.75 232.23 245.26V237.21C238.6 233.43 245.11 231.54 251.62 231.54C259.39 231.54 266.6 234.13 273.25 239.24C272.48 241.13 270.73 243.65 268.14 246.66C265.27 249.95 262.61 252.33 260.09 253.87C261.35 255.06 263.1 255.62 265.34 255.62H281.3V265ZM261.14 241.83C258.13 240.29 255.19 239.52 252.32 239.52C249.52 239.52 246.72 240.15 243.99 241.48C246.09 242.39 247.77 243.37 249.03 244.28C250.29 245.19 251.76 246.59 253.37 248.48C254.77 247.85 256.31 246.73 257.92 245.26C259.39 244 260.51 242.88 261.14 241.83ZM294.077 265H279.097V255.62H294.077V265ZM313.274 227.97H304.524V219.92H313.274V227.97ZM300.044 227.97H291.364V219.92H300.044V227.97ZM313.904 251.49C313.904 255.2 312.854 258.28 310.824 260.73C308.514 263.6 305.294 265 301.234 265H292.904V255.62H299.134C302.424 255.62 304.104 253.31 304.104 248.76V233.29H313.904V251.49Z" fill="white"/>
<path d="M8.978 384.512C8.978 387.593 9.641 390.128 10.85 392.156C12.332 394.613 14.477 395.822 17.285 395.822C20.132 395.822 22.277 394.613 23.72 392.156C24.929 390.128 25.553 387.593 25.553 384.512V366.767H28.283V385.058C28.283 388.997 27.191 392.234 25.046 394.769C22.979 397.226 20.405 398.474 17.285 398.474C14.165 398.474 11.552 397.226 9.407 394.73C7.301 392.234 6.248 388.997 6.248 385.058V381.314H8.978V384.512ZM42.0753 392H38.9943C37.5903 392 36.4203 391.493 35.4453 390.518C34.3143 389.426 33.7683 387.866 33.7683 385.799V366.767H36.5763V384.161C36.5763 385.955 36.8493 387.242 37.3563 388.022C37.7853 388.685 38.5263 389.075 39.5793 389.231C39.8523 389.27 40.1643 389.27 42.0753 389.27V392ZM49.7488 392H41.5198V389.27H49.7488V392ZM57.4803 392H49.2513V389.27H57.4803V392ZM65.2117 392H56.9827V389.27H65.2117V392ZM72.9432 392H64.7142V389.27H72.9432V392ZM80.6746 392H72.4456V389.27H80.6746V392ZM104.981 392H99.0141C97.5321 394.262 95.3481 395.393 92.4621 395.393C89.4591 395.393 87.1971 394.262 85.7541 392H79.9821V389.27H84.5841C84.3891 388.451 84.2721 387.554 84.2721 386.579C84.2721 384.005 85.0131 381.899 86.4561 380.222C87.9381 378.545 89.9661 377.726 92.5011 377.726C95.0361 377.726 97.0641 378.584 98.5071 380.261C99.8721 381.86 100.574 383.966 100.574 386.54C100.574 387.515 100.457 388.412 100.223 389.27H104.981V392ZM97.3761 386.267C97.3761 384.512 97.0251 383.108 96.3231 382.055C95.5041 380.768 94.2951 380.144 92.6181 380.144C90.8631 380.144 89.4981 380.846 88.6011 382.211C87.8601 383.342 87.5091 384.824 87.5091 386.735C87.5091 388.49 87.8601 389.933 88.6011 391.025C89.4981 392.312 90.7851 392.936 92.4621 392.936C95.7381 392.936 97.3761 390.713 97.3761 386.267ZM112.514 392H104.285V389.27H112.514V392ZM132.453 392H111.003V389.27H116.97C116.034 387.749 115.566 385.916 115.566 383.81C115.566 381.041 116.268 378.818 117.711 377.063C119.232 375.152 121.377 374.216 124.146 374.216C126.174 374.216 127.929 374.723 129.372 375.698C131.01 376.751 132.024 378.233 132.375 380.183L129.06 380.534C128.592 377.765 126.954 376.4 124.185 376.4C122.274 376.4 120.87 377.18 119.934 378.779C119.232 380.066 118.881 381.743 118.881 383.81C118.881 386.189 119.466 388.022 120.675 389.27H132.453V392ZM153.767 366.767V385.136C153.767 389.699 151.856 392 148.034 392H136.763V389.309H143.12L138.089 369.77H141.053L145.967 389.309H147.137C149.906 389.309 151.037 388.178 151.037 383.927V366.767H153.767ZM142.847 363.062L141.248 363.218C141.092 362.321 140.624 361.853 139.805 361.853C138.752 361.853 138.206 362.555 138.206 363.959C138.206 364.505 138.323 364.973 138.596 365.363H142.769V366.923H135.32V365.363H136.88C136.685 364.934 136.607 364.466 136.607 363.998C136.607 362.009 137.621 360.566 139.805 360.566C141.482 360.566 142.496 361.385 142.847 363.062ZM161.718 392H158.988V366.767H161.718V392ZM174.728 384.512C174.728 387.593 175.391 390.128 176.6 392.156C178.082 394.613 180.227 395.822 183.035 395.822C185.882 395.822 188.027 394.613 189.47 392.156C190.679 390.128 191.303 387.593 191.303 384.512V366.767H194.033V385.058C194.033 388.997 192.941 392.234 190.796 394.769C188.729 397.226 186.155 398.474 183.035 398.474C179.915 398.474 177.302 397.226 175.157 394.73C173.051 392.234 171.998 388.997 171.998 385.058V381.314H174.728V384.512ZM218.043 392H212.661C211.881 396.017 209.229 398.123 204.744 398.396V395.783H205.095C207.591 395.783 209.19 394.496 209.853 392H205.602C203.418 392 201.624 391.181 200.22 389.504C198.816 387.827 198.114 385.721 198.114 383.186C198.114 380.651 198.855 378.545 200.337 376.829C201.858 375.113 203.73 374.255 205.953 374.255C210.282 374.255 212.973 376.907 212.973 382.055V389.309H218.043V392ZM210.165 389.27V381.041C210.165 379.91 209.814 378.935 209.112 378.155C208.332 377.258 207.24 376.79 205.797 376.79C204.315 376.79 203.106 377.492 202.17 378.857C201.351 380.066 200.922 381.431 200.922 382.913C200.922 384.473 201.273 385.877 202.014 387.086C202.911 388.568 204.12 389.309 205.641 389.309L210.165 389.27ZM225.592 392H217.363V389.27H225.592V392ZM233.323 392H225.094V389.27H233.323V392ZM241.055 392H232.826V389.27H241.055V392ZM248.786 392H240.557V389.27H248.786V392ZM256.517 392H248.288V389.27H256.517V392ZM269.358 392H255.903V389.309H258.399C260.076 389.309 261.168 388.763 261.714 387.71C262.104 386.969 262.299 385.721 262.299 383.927V366.767H265.029V385.136C265.029 386.813 264.795 388.217 264.288 389.27H269.358V392ZM277.046 392H268.817V389.27H277.046V392ZM307.475 392H276.158V389.27H299.87C299.909 388.763 299.948 388.295 299.948 387.866C299.948 381.275 296.477 377.492 290.354 377.492C287.039 377.492 284.582 378.779 283.022 381.353C282.632 380.924 281.852 380.144 280.643 378.935C282.866 376.166 286.064 374.801 290.315 374.801C298.076 374.801 303.185 379.949 303.185 388.061V389.27H307.475V392ZM315.759 366.767V385.136C315.759 389.699 313.848 392 310.026 392H306.633V389.309H309.129C310.806 389.309 311.898 388.763 312.444 387.671C312.834 386.969 313.029 385.721 313.029 383.927V366.767H315.759Z" fill="#F28D2B"/>
<path d="M20.44 337H11.984V304.072H1.12V297.016H31.304V304.072H20.44V337ZM73.1242 337L70.2122 327.48H55.6522L52.7402 337H43.6122L57.7242 296.848H68.0842L82.2522 337H73.1242ZM65.2842 311.072C65.0975 310.437 64.8549 309.635 64.5562 308.664C64.2575 307.693 63.9589 306.704 63.6602 305.696C63.3615 304.688 63.1189 303.811 62.9322 303.064C62.7455 303.811 62.4842 304.744 62.1482 305.864C61.8495 306.947 61.5509 307.992 61.2522 309C60.9909 309.971 60.7855 310.661 60.6362 311.072L57.7802 320.368H68.1962L65.2842 311.072ZM126.908 337L123.996 327.48H109.436L106.524 337H97.3962L111.508 296.848H121.868L136.036 337H126.908ZM119.068 311.072C118.882 310.437 118.639 309.635 118.34 308.664C118.042 307.693 117.743 306.704 117.444 305.696C117.146 304.688 116.903 303.811 116.716 303.064C116.53 303.811 116.268 304.744 115.932 305.864C115.634 306.947 115.335 307.992 115.036 309C114.775 309.971 114.57 310.661 114.42 311.072L111.564 320.368H121.98L119.068 311.072ZM203.09 297.016L192.898 337H183.266L177.834 316C177.722 315.589 177.573 314.973 177.386 314.152C177.237 313.331 177.05 312.435 176.826 311.464C176.639 310.493 176.471 309.579 176.322 308.72C176.173 307.824 176.061 307.133 175.986 306.648C175.949 307.133 175.837 307.824 175.65 308.72C175.501 309.579 175.333 310.493 175.146 311.464C174.959 312.397 174.773 313.293 174.586 314.152C174.399 314.973 174.25 315.608 174.138 316.056L168.762 337H159.13L148.938 297.016H157.282L162.378 318.856C162.527 319.491 162.695 320.275 162.882 321.208C163.069 322.104 163.255 323.056 163.442 324.064C163.629 325.035 163.797 325.987 163.946 326.92C164.133 327.853 164.263 328.656 164.338 329.328C164.413 328.619 164.525 327.816 164.674 326.92C164.823 325.987 164.991 325.053 165.178 324.12C165.365 323.149 165.533 322.253 165.682 321.432C165.869 320.573 166.037 319.901 166.186 319.416L172.01 297.016H180.018L185.842 319.416C185.954 319.901 186.103 320.573 186.29 321.432C186.477 322.253 186.663 323.149 186.85 324.12C187.037 325.091 187.205 326.043 187.354 326.976C187.503 327.872 187.615 328.656 187.69 329.328C187.802 328.395 187.97 327.293 188.194 326.024C188.418 324.717 188.661 323.411 188.922 322.104C189.221 320.797 189.463 319.715 189.65 318.856L194.746 297.016H203.09ZM245.469 337L242.557 327.48H227.997L225.085 337H215.957L230.069 296.848H240.429L254.597 337H245.469ZM237.629 311.072C237.442 310.437 237.199 309.635 236.901 308.664C236.602 307.693 236.303 306.704 236.005 305.696C235.706 304.688 235.463 303.811 235.277 303.064C235.09 303.811 234.829 304.744 234.493 305.864C234.194 306.947 233.895 307.992 233.597 309C233.335 309.971 233.13 310.661 232.981 311.072L230.125 320.368H240.541L237.629 311.072ZM310.229 337H299.477L282.061 306.76H281.837C281.874 307.693 281.911 308.645 281.949 309.616C281.986 310.549 282.023 311.501 282.061 312.472C282.135 313.405 282.191 314.357 282.229 315.328C282.266 316.261 282.303 317.213 282.341 318.184V337H274.781V297.016H285.477L302.837 326.976H303.005C302.967 326.043 302.93 325.128 302.893 324.232C302.855 323.299 302.818 322.384 302.781 321.488C302.781 320.555 302.762 319.64 302.725 318.744C302.687 317.811 302.65 316.877 302.613 315.944V297.016H310.229V337Z" fill="white"/>
<path d="M6.05078 422.957H14.0625C15.6484 422.957 16.8288 423.025 17.6035 423.162C18.3874 423.29 19.0846 423.563 19.6953 423.982C20.3151 424.402 20.8301 424.962 21.2402 425.664C21.6504 426.357 21.8555 427.136 21.8555 428.002C21.8555 428.941 21.6003 429.802 21.0898 430.586C20.5885 431.37 19.9049 431.958 19.0391 432.35C20.2604 432.705 21.1992 433.311 21.8555 434.168C22.5117 435.025 22.8398 436.032 22.8398 437.189C22.8398 438.101 22.6257 438.99 22.1973 439.855C21.778 440.712 21.1992 441.4 20.4609 441.92C19.7318 442.43 18.8294 442.745 17.7539 442.863C17.0794 442.936 15.4525 442.982 12.873 443H6.05078V422.957ZM10.0977 426.293V430.928H12.75C14.3268 430.928 15.3066 430.905 15.6895 430.859C16.3822 430.777 16.9245 430.54 17.3164 430.148C17.7174 429.747 17.918 429.223 17.918 428.576C17.918 427.956 17.7448 427.455 17.3984 427.072C17.0612 426.68 16.5553 426.443 15.8809 426.361C15.4798 426.316 14.3268 426.293 12.4219 426.293H10.0977ZM10.0977 434.264V439.623H13.8438C15.3021 439.623 16.2272 439.582 16.6191 439.5C17.2207 439.391 17.7083 439.126 18.082 438.707C18.4648 438.279 18.6562 437.709 18.6562 436.998C18.6562 436.396 18.5104 435.886 18.2188 435.467C17.9271 435.048 17.5033 434.742 16.9473 434.551C16.4004 434.359 15.2064 434.264 13.3652 434.264H10.0977ZM26.5241 422.957H30.571V433.812C30.571 435.535 30.6211 436.652 30.7214 437.162C30.8946 437.982 31.3047 438.643 31.9519 439.145C32.6081 439.637 33.5014 439.883 34.6316 439.883C35.78 439.883 36.6459 439.65 37.2292 439.186C37.8126 438.712 38.1635 438.133 38.282 437.449C38.4004 436.766 38.4597 435.631 38.4597 434.045V422.957H42.5066V433.484C42.5066 435.891 42.3972 437.59 42.1784 438.584C41.9597 439.577 41.5541 440.416 40.9616 441.1C40.3783 441.783 39.5945 442.33 38.6101 442.74C37.6257 443.141 36.3405 443.342 34.7546 443.342C32.8405 443.342 31.3868 443.123 30.3933 442.686C29.4089 442.239 28.6296 441.665 28.0554 440.963C27.4812 440.252 27.1029 439.509 26.9206 438.734C26.6563 437.586 26.5241 435.891 26.5241 433.648V422.957ZM46.0405 436.479L49.978 436.096C50.2149 437.417 50.6935 438.388 51.4135 439.008C52.1427 439.628 53.1225 439.938 54.353 439.938C55.6564 439.938 56.6362 439.664 57.2924 439.117C57.9578 438.561 58.2905 437.914 58.2905 437.176C58.2905 436.702 58.1492 436.301 57.8666 435.973C57.5932 435.635 57.1101 435.344 56.4174 435.098C55.9435 434.934 54.8634 434.642 53.1772 434.223C51.0079 433.685 49.4858 433.024 48.6108 432.24C47.3803 431.137 46.7651 429.793 46.7651 428.207C46.7651 427.186 47.0522 426.234 47.6264 425.35C48.2097 424.456 49.0437 423.777 50.1284 423.312C51.2221 422.848 52.5392 422.615 54.0795 422.615C56.5952 422.615 58.4864 423.167 59.7534 424.27C61.0294 425.372 61.6993 426.844 61.7631 428.686L57.7163 428.863C57.5431 427.833 57.1694 427.095 56.5952 426.648C56.0301 426.193 55.1778 425.965 54.0385 425.965C52.8627 425.965 51.9422 426.206 51.2768 426.689C50.8484 426.999 50.6342 427.414 50.6342 427.934C50.6342 428.408 50.8347 428.813 51.2358 429.15C51.7462 429.579 52.9858 430.025 54.9545 430.49C56.9233 430.955 58.3771 431.438 59.3159 431.939C60.2638 432.432 61.0021 433.111 61.5307 433.977C62.0685 434.833 62.3373 435.895 62.3373 437.162C62.3373 438.311 62.0183 439.386 61.3803 440.389C60.7423 441.391 59.8399 442.139 58.6733 442.631C57.5066 443.114 56.0528 443.355 54.312 443.355C51.7781 443.355 49.8321 442.772 48.4741 441.605C47.116 440.43 46.3048 438.721 46.0405 436.479ZM65.8986 443V422.957H69.9455V443H65.8986ZM74.1356 443V422.957H78.0731L86.2763 436.342V422.957H90.036V443H85.9755L77.8954 429.93V443H74.1356ZM94.609 443V422.957H109.47V426.348H98.6559V430.791H108.718V434.168H98.6559V439.623H109.853V443H94.609ZM112.539 436.479L116.477 436.096C116.714 437.417 117.192 438.388 117.912 439.008C118.642 439.628 119.621 439.938 120.852 439.938C122.155 439.938 123.135 439.664 123.791 439.117C124.457 438.561 124.789 437.914 124.789 437.176C124.789 436.702 124.648 436.301 124.366 435.973C124.092 435.635 123.609 435.344 122.916 435.098C122.442 434.934 121.362 434.642 119.676 434.223C117.507 433.685 115.985 433.024 115.11 432.24C113.879 431.137 113.264 429.793 113.264 428.207C113.264 427.186 113.551 426.234 114.125 425.35C114.709 424.456 115.543 423.777 116.627 423.312C117.721 422.848 119.038 422.615 120.578 422.615C123.094 422.615 124.985 423.167 126.252 424.27C127.528 425.372 128.198 426.844 128.262 428.686L124.215 428.863C124.042 427.833 123.668 427.095 123.094 426.648C122.529 426.193 121.677 425.965 120.537 425.965C119.362 425.965 118.441 426.206 117.776 426.689C117.347 426.999 117.133 427.414 117.133 427.934C117.133 428.408 117.334 428.813 117.735 429.15C118.245 429.579 119.485 430.025 121.453 430.49C123.422 430.955 124.876 431.438 125.815 431.939C126.763 432.432 127.501 433.111 128.03 433.977C128.567 434.833 128.836 435.895 128.836 437.162C128.836 438.311 128.517 439.386 127.879 440.389C127.241 441.391 126.339 442.139 125.172 442.631C124.006 443.114 122.552 443.355 120.811 443.355C118.277 443.355 116.331 442.772 114.973 441.605C113.615 440.43 112.804 438.721 112.539 436.479ZM131.495 436.479L135.433 436.096C135.67 437.417 136.148 438.388 136.868 439.008C137.597 439.628 138.577 439.938 139.808 439.938C141.111 439.938 142.091 439.664 142.747 439.117C143.412 438.561 143.745 437.914 143.745 437.176C143.745 436.702 143.604 436.301 143.321 435.973C143.048 435.635 142.565 435.344 141.872 435.098C141.398 434.934 140.318 434.642 138.632 434.223C136.463 433.685 134.94 433.024 134.065 432.24C132.835 431.137 132.22 429.793 132.22 428.207C132.22 427.186 132.507 426.234 133.081 425.35C133.664 424.456 134.498 423.777 135.583 423.312C136.677 422.848 137.994 422.615 139.534 422.615C142.05 422.615 143.941 423.167 145.208 424.27C146.484 425.372 147.154 426.844 147.218 428.686L143.171 428.863C142.998 427.833 142.624 427.095 142.05 426.648C141.485 426.193 140.633 425.965 139.493 425.965C138.317 425.965 137.397 426.206 136.731 426.689C136.303 426.999 136.089 427.414 136.089 427.934C136.089 428.408 136.289 428.813 136.69 429.15C137.201 429.579 138.44 430.025 140.409 430.49C142.378 430.955 143.832 431.438 144.771 431.939C145.718 432.432 146.457 433.111 146.985 433.977C147.523 434.833 147.792 435.895 147.792 437.162C147.792 438.311 147.473 439.386 146.835 440.389C146.197 441.391 145.295 442.139 144.128 442.631C142.961 443.114 141.508 443.355 139.767 443.355C137.233 443.355 135.287 442.772 133.929 441.605C132.571 440.43 131.759 438.721 131.495 436.479ZM158.524 436.479L162.461 436.096C162.698 437.417 163.177 438.388 163.897 439.008C164.626 439.628 165.606 439.938 166.836 439.938C168.14 439.938 169.12 439.664 169.776 439.117C170.441 438.561 170.774 437.914 170.774 437.176C170.774 436.702 170.633 436.301 170.35 435.973C170.077 435.635 169.594 435.344 168.901 435.098C168.427 434.934 167.347 434.642 165.661 434.223C163.491 433.685 161.969 433.024 161.094 432.24C159.864 431.137 159.249 429.793 159.249 428.207C159.249 427.186 159.536 426.234 160.11 425.35C160.693 424.456 161.527 423.777 162.612 423.312C163.706 422.848 165.023 422.615 166.563 422.615C169.079 422.615 170.97 423.167 172.237 424.27C173.513 425.372 174.183 426.844 174.247 428.686L170.2 428.863C170.027 427.833 169.653 427.095 169.079 426.648C168.513 426.193 167.661 425.965 166.522 425.965C165.346 425.965 164.426 426.206 163.76 426.689C163.332 426.999 163.118 427.414 163.118 427.934C163.118 428.408 163.318 428.813 163.719 429.15C164.23 429.579 165.469 430.025 167.438 430.49C169.407 430.955 170.86 431.438 171.799 431.939C172.747 432.432 173.485 433.111 174.014 433.977C174.552 434.833 174.821 435.895 174.821 437.162C174.821 438.311 174.502 439.386 173.864 440.389C173.226 441.391 172.323 442.139 171.157 442.631C169.99 443.114 168.536 443.355 166.795 443.355C164.262 443.355 162.316 442.772 160.958 441.605C159.599 440.43 158.788 438.721 158.524 436.479ZM177.685 433.102C177.685 431.06 177.99 429.346 178.601 427.961C179.057 426.94 179.676 426.024 180.46 425.213C181.253 424.402 182.119 423.8 183.058 423.408C184.307 422.88 185.747 422.615 187.378 422.615C190.331 422.615 192.692 423.531 194.46 425.363C196.238 427.195 197.126 429.743 197.126 433.006C197.126 436.242 196.247 438.775 194.488 440.607C192.728 442.43 190.377 443.342 187.433 443.342C184.452 443.342 182.083 442.435 180.323 440.621C178.564 438.798 177.685 436.292 177.685 433.102ZM181.855 432.965C181.855 435.234 182.379 436.957 183.427 438.133C184.475 439.299 185.806 439.883 187.419 439.883C189.032 439.883 190.354 439.304 191.384 438.146C192.423 436.98 192.943 435.234 192.943 432.91C192.943 430.613 192.437 428.9 191.425 427.77C190.422 426.639 189.087 426.074 187.419 426.074C185.751 426.074 184.407 426.648 183.386 427.797C182.365 428.936 181.855 430.659 181.855 432.965ZM200.687 443V423.121H204.734V439.623H214.797V443H200.687ZM217.948 422.957H221.995V433.812C221.995 435.535 222.045 436.652 222.145 437.162C222.318 437.982 222.728 438.643 223.376 439.145C224.032 439.637 224.925 439.883 226.055 439.883C227.204 439.883 228.07 439.65 228.653 439.186C229.236 438.712 229.587 438.133 229.706 437.449C229.824 436.766 229.883 435.631 229.883 434.045V422.957H233.93V433.484C233.93 435.891 233.821 437.59 233.602 438.584C233.383 439.577 232.978 440.416 232.385 441.1C231.802 441.783 231.018 442.33 230.034 442.74C229.049 443.141 227.764 443.342 226.178 443.342C224.264 443.342 222.811 443.123 221.817 442.686C220.833 442.239 220.053 441.665 219.479 440.963C218.905 440.252 218.527 439.509 218.344 438.734C218.08 437.586 217.948 435.891 217.948 433.648V422.957ZM243.001 443V426.348H237.054V422.957H252.982V426.348H247.048V443H243.001ZM255.764 443V422.957H259.811V443H255.764ZM263.139 433.102C263.139 431.06 263.445 429.346 264.055 427.961C264.511 426.94 265.131 426.024 265.915 425.213C266.708 424.402 267.574 423.8 268.513 423.408C269.761 422.88 271.201 422.615 272.833 422.615C275.786 422.615 278.147 423.531 279.915 425.363C281.692 427.195 282.581 429.743 282.581 433.006C282.581 436.242 281.701 438.775 279.942 440.607C278.183 442.43 275.832 443.342 272.888 443.342C269.907 443.342 267.537 442.435 265.778 440.621C264.019 438.798 263.139 436.292 263.139 433.102ZM267.309 432.965C267.309 435.234 267.833 436.957 268.882 438.133C269.93 439.299 271.261 439.883 272.874 439.883C274.487 439.883 275.809 439.304 276.839 438.146C277.878 436.98 278.397 435.234 278.397 432.91C278.397 430.613 277.891 428.9 276.88 427.77C275.877 426.639 274.542 426.074 272.874 426.074C271.206 426.074 269.861 426.648 268.841 427.797C267.82 428.936 267.309 430.659 267.309 432.965ZM286.074 443V422.957H290.011L298.214 436.342V422.957H301.974V443H297.914L289.834 429.93V443H286.074ZM305.522 436.479L309.459 436.096C309.696 437.417 310.175 438.388 310.895 439.008C311.624 439.628 312.604 439.938 313.834 439.938C315.138 439.938 316.117 439.664 316.774 439.117C317.439 438.561 317.772 437.914 317.772 437.176C317.772 436.702 317.63 436.301 317.348 435.973C317.074 435.635 316.591 435.344 315.899 435.098C315.425 434.934 314.345 434.642 312.658 434.223C310.489 433.685 308.967 433.024 308.092 432.24C306.862 431.137 306.246 429.793 306.246 428.207C306.246 427.186 306.533 426.234 307.108 425.35C307.691 424.456 308.525 423.777 309.61 423.312C310.703 422.848 312.02 422.615 313.561 422.615C316.076 422.615 317.968 423.167 319.235 424.27C320.511 425.372 321.181 426.844 321.244 428.686L317.198 428.863C317.024 427.833 316.651 427.095 316.076 426.648C315.511 426.193 314.659 425.965 313.52 425.965C312.344 425.965 311.423 426.206 310.758 426.689C310.33 426.999 310.115 427.414 310.115 427.934C310.115 428.408 310.316 428.813 310.717 429.15C311.227 429.579 312.467 430.025 314.436 430.49C316.405 430.955 317.858 431.438 318.797 431.939C319.745 432.432 320.483 433.111 321.012 433.977C321.55 434.833 321.819 435.895 321.819 437.162C321.819 438.311 321.5 439.386 320.862 440.389C320.224 441.391 319.321 442.139 318.155 442.631C316.988 443.114 315.534 443.355 313.793 443.355C311.259 443.355 309.313 442.772 307.955 441.605C306.597 440.43 305.786 438.721 305.522 436.479Z" fill="white"/>
<defs>
<clipPath id="clip0_15_8">
<rect width="318.108" height="196.738" fill="white"/>
</clipPath>
</defs>
</svg>
