<svg width="765" height="249" viewBox="0 0 765 249" fill="none" xmlns="http://www.w3.org/2000/svg">
<g clip-path="url(#clip0_24_18)">
<path d="M731.665 217.901C731.665 217.901 713.507 222.963 679.724 171.493C664.242 147.907 650.649 123.613 635.108 104.212C616.736 81.2758 596.147 65.1793 573.729 65.1793C521.365 65.1793 465.623 151.243 465.623 151.243C465.623 151.243 457.878 163.853 447.501 178.983C428.199 207.129 396.679 243.996 367.018 224.652C367.018 224.652 379.687 244.269 395.523 247.433C411.358 250.597 433.528 251.23 458.866 226.761C484.203 202.293 531.077 147.87 531.077 147.87C531.077 147.87 593.154 78.2597 629.893 140.698C639.735 157.423 651.295 170.529 660.297 181.621C684.9 211.938 702.104 223.386 702.104 223.386C702.104 223.386 725.754 225.072 731.665 217.901Z" fill="#F28D2B"/>
<path d="M704.216 226.763C704.216 226.763 728.709 244.06 746.022 234.778C763.335 225.496 773.893 179.511 754.89 147.87C735.887 116.229 703.371 122.557 703.371 122.557C703.371 122.557 678.879 130.151 667.477 144.073L688.59 174.449C688.59 174.449 720.262 144.917 732.509 155.042C744.755 165.168 743.066 178.246 743.066 183.731C743.066 189.216 746.445 211.998 732.087 218.747C732.087 218.747 723.641 224.654 702.104 224.654" fill="white"/>
<path d="M578.533 214.633C578.901 214.686 580.063 215.372 580.063 215.372C580.063 215.372 594.419 228.45 641.716 167.699L667.054 197.23C667.054 197.23 651.007 215.371 632.004 224.23C613.001 233.09 588.086 222.753 581.752 217.691C578.585 215.159 578.163 214.58 578.533 214.633Z" fill="white"/>
<path d="M622.713 228.872C622.713 228.872 573.307 240.685 531.077 159.684L498.984 194.579C498.984 194.579 559.37 266.843 622.713 228.872Z" fill="white"/>
<path d="M406.281 221.865C403.107 223.5 398.796 224.255 393.833 221.28C383.276 214.952 385.809 182.247 400.167 158.943C414.524 135.639 433.527 114.966 462.665 143.654L494.759 102.732C494.759 102.732 468.576 73.6224 425.926 96.404C383.276 119.186 367.65 168.124 367.65 168.124C367.65 168.124 355.827 196.812 366.383 223.812C366.383 223.812 386.073 236.993 407.645 221.07" fill="white"/>
<path d="M465.834 76.1537C476.911 76.1537 485.892 67.182 485.892 56.1148C485.892 45.0476 476.911 36.0759 465.834 36.0759C454.756 36.0759 445.775 45.0476 445.775 56.1148C445.775 67.182 454.756 76.1537 465.834 76.1537Z" fill="white"/>
<path d="M576.056 58.6461C591.334 58.6461 603.719 46.2728 603.719 31.0095C603.719 15.7462 591.334 3.37292 576.056 3.37292C560.778 3.37292 548.393 15.7462 548.393 31.0095C548.393 46.2728 560.778 58.6461 576.056 58.6461Z" fill="#F28D2B"/>
<path d="M718.998 117.916C730.192 117.916 739.267 108.85 739.267 97.6658C739.267 86.4819 730.192 77.4155 718.998 77.4155C707.803 77.4155 698.728 86.4819 698.728 97.6658C698.728 108.85 707.803 117.916 718.998 117.916Z" fill="white"/>
</g>
<path d="M28.63 26.97H19.95V18.92H28.63V26.97ZM2.24 32.22H12.11V50.91C12.11 60.01 16.66 66.52 24.43 66.52C32.06 66.52 36.61 60.01 36.61 50.91V32.22H46.48V51.82C46.48 64.84 37.03 75.62 24.36 75.62C12.04 75.62 2.24 65.26 2.24 51.82V32.22ZM84.3702 62.6C84.3702 71.21 79.0502 75.55 68.3402 75.55H67.3602V67.71H67.9902C71.9102 67.71 75.7602 64.98 75.7602 61.2C74.4302 63.37 72.1202 64.42 68.8302 64.42C59.8002 64.42 53.0802 57.56 53.0802 48.18C53.0802 38.59 59.6602 32.15 68.8302 32.15C77.8602 32.15 84.3702 39.08 84.3702 48.32V62.6ZM74.5702 48.32C74.5702 44.05 72.1202 41.04 68.6202 41.04C65.1902 41.04 62.8802 43.98 62.8802 48.11C62.8802 52.03 65.1202 55.32 68.9702 55.32C72.4702 55.32 74.5702 52.59 74.5702 48.32ZM112.65 64H103.41C95.9197 64 91.5797 59.66 91.5797 52.45V18.85H101.38V47.34C101.38 52.1 102.57 54.62 109.78 54.62H112.65V64ZM126.254 64H111.274V54.62H126.254V64ZM140.131 64H125.151V54.62H140.131V64ZM154.008 64H139.028V54.62H154.008V64ZM167.885 64H152.905V54.62H167.885V64ZM181.762 64H166.782V54.62H181.762V64ZM195.639 64H180.659V54.62H195.639V64ZM209.516 64H194.536V54.62H209.516V64ZM223.393 64H208.413V54.62H223.393V64ZM281.3 64H263.24C259.18 64 255.54 62.39 252.39 59.1C250.71 60.5 248.54 61.69 245.81 62.6C242.87 63.51 240 64 237.13 64H221.73V54.62H236.99C240.42 54.62 243.5 53.85 246.09 52.24C245.04 50.77 243.22 49.3 240.77 47.76C237.83 45.94 234.96 44.75 232.23 44.26V36.21C238.6 32.43 245.11 30.54 251.62 30.54C259.39 30.54 266.6 33.13 273.25 38.24C272.48 40.13 270.73 42.65 268.14 45.66C265.27 48.95 262.61 51.33 260.09 52.87C261.35 54.06 263.1 54.62 265.34 54.62H281.3V64ZM261.14 40.83C258.13 39.29 255.19 38.52 252.32 38.52C249.52 38.52 246.72 39.15 243.99 40.48C246.09 41.39 247.77 42.37 249.03 43.28C250.29 44.19 251.76 45.59 253.37 47.48C254.77 46.85 256.31 45.73 257.92 44.26C259.39 43 260.51 41.88 261.14 40.83ZM294.077 64H279.097V54.62H294.077V64ZM313.274 26.97H304.524V18.92H313.274V26.97ZM300.044 26.97H291.364V18.92H300.044V26.97ZM313.904 50.49C313.904 54.2 312.854 57.28 310.824 59.73C308.514 62.6 305.294 64 301.234 64H292.904V54.62H299.134C302.424 54.62 304.104 52.31 304.104 47.76V32.29H313.904V50.49Z" fill="white"/>
<path d="M8.978 183.512C8.978 186.593 9.641 189.128 10.85 191.156C12.332 193.613 14.477 194.822 17.285 194.822C20.132 194.822 22.277 193.613 23.72 191.156C24.929 189.128 25.553 186.593 25.553 183.512V165.767H28.283V184.058C28.283 187.997 27.191 191.234 25.046 193.769C22.979 196.226 20.405 197.474 17.285 197.474C14.165 197.474 11.552 196.226 9.407 193.73C7.301 191.234 6.248 187.997 6.248 184.058V180.314H8.978V183.512ZM42.0753 191H38.9943C37.5903 191 36.4203 190.493 35.4453 189.518C34.3143 188.426 33.7683 186.866 33.7683 184.799V165.767H36.5763V183.161C36.5763 184.955 36.8493 186.242 37.3563 187.022C37.7853 187.685 38.5263 188.075 39.5793 188.231C39.8523 188.27 40.1643 188.27 42.0753 188.27V191ZM49.7488 191H41.5198V188.27H49.7488V191ZM57.4803 191H49.2513V188.27H57.4803V191ZM65.2117 191H56.9827V188.27H65.2117V191ZM72.9432 191H64.7142V188.27H72.9432V191ZM80.6746 191H72.4456V188.27H80.6746V191ZM104.981 191H99.0141C97.5321 193.262 95.3481 194.393 92.4621 194.393C89.4591 194.393 87.1971 193.262 85.7541 191H79.9821V188.27H84.5841C84.3891 187.451 84.2721 186.554 84.2721 185.579C84.2721 183.005 85.0131 180.899 86.4561 179.222C87.9381 177.545 89.9661 176.726 92.5011 176.726C95.0361 176.726 97.0641 177.584 98.5071 179.261C99.8721 180.86 100.574 182.966 100.574 185.54C100.574 186.515 100.457 187.412 100.223 188.27H104.981V191ZM97.3761 185.267C97.3761 183.512 97.0251 182.108 96.3231 181.055C95.5041 179.768 94.2951 179.144 92.6181 179.144C90.8631 179.144 89.4981 179.846 88.6011 181.211C87.8601 182.342 87.5091 183.824 87.5091 185.735C87.5091 187.49 87.8601 188.933 88.6011 190.025C89.4981 191.312 90.7851 191.936 92.4621 191.936C95.7381 191.936 97.3761 189.713 97.3761 185.267ZM112.514 191H104.285V188.27H112.514V191ZM132.453 191H111.003V188.27H116.97C116.034 186.749 115.566 184.916 115.566 182.81C115.566 180.041 116.268 177.818 117.711 176.063C119.232 174.152 121.377 173.216 124.146 173.216C126.174 173.216 127.929 173.723 129.372 174.698C131.01 175.751 132.024 177.233 132.375 179.183L129.06 179.534C128.592 176.765 126.954 175.4 124.185 175.4C122.274 175.4 120.87 176.18 119.934 177.779C119.232 179.066 118.881 180.743 118.881 182.81C118.881 185.189 119.466 187.022 120.675 188.27H132.453V191ZM153.767 165.767V184.136C153.767 188.699 151.856 191 148.034 191H136.763V188.309H143.12L138.089 168.77H141.053L145.967 188.309H147.137C149.906 188.309 151.037 187.178 151.037 182.927V165.767H153.767ZM142.847 162.062L141.248 162.218C141.092 161.321 140.624 160.853 139.805 160.853C138.752 160.853 138.206 161.555 138.206 162.959C138.206 163.505 138.323 163.973 138.596 164.363H142.769V165.923H135.32V164.363H136.88C136.685 163.934 136.607 163.466 136.607 162.998C136.607 161.009 137.621 159.566 139.805 159.566C141.482 159.566 142.496 160.385 142.847 162.062ZM161.718 191H158.988V165.767H161.718V191ZM174.728 183.512C174.728 186.593 175.391 189.128 176.6 191.156C178.082 193.613 180.227 194.822 183.035 194.822C185.882 194.822 188.027 193.613 189.47 191.156C190.679 189.128 191.303 186.593 191.303 183.512V165.767H194.033V184.058C194.033 187.997 192.941 191.234 190.796 193.769C188.729 196.226 186.155 197.474 183.035 197.474C179.915 197.474 177.302 196.226 175.157 193.73C173.051 191.234 171.998 187.997 171.998 184.058V180.314H174.728V183.512ZM218.043 191H212.661C211.881 195.017 209.229 197.123 204.744 197.396V194.783H205.095C207.591 194.783 209.19 193.496 209.853 191H205.602C203.418 191 201.624 190.181 200.22 188.504C198.816 186.827 198.114 184.721 198.114 182.186C198.114 179.651 198.855 177.545 200.337 175.829C201.858 174.113 203.73 173.255 205.953 173.255C210.282 173.255 212.973 175.907 212.973 181.055V188.309H218.043V191ZM210.165 188.27V180.041C210.165 178.91 209.814 177.935 209.112 177.155C208.332 176.258 207.24 175.79 205.797 175.79C204.315 175.79 203.106 176.492 202.17 177.857C201.351 179.066 200.922 180.431 200.922 181.913C200.922 183.473 201.273 184.877 202.014 186.086C202.911 187.568 204.12 188.309 205.641 188.309L210.165 188.27ZM225.592 191H217.363V188.27H225.592V191ZM233.323 191H225.094V188.27H233.323V191ZM241.055 191H232.826V188.27H241.055V191ZM248.786 191H240.557V188.27H248.786V191ZM256.517 191H248.288V188.27H256.517V191ZM269.358 191H255.903V188.309H258.399C260.076 188.309 261.168 187.763 261.714 186.71C262.104 185.969 262.299 184.721 262.299 182.927V165.767H265.029V184.136C265.029 185.813 264.795 187.217 264.288 188.27H269.358V191ZM277.046 191H268.817V188.27H277.046V191ZM307.475 191H276.158V188.27H299.87C299.909 187.763 299.948 187.295 299.948 186.866C299.948 180.275 296.477 176.492 290.354 176.492C287.039 176.492 284.582 177.779 283.022 180.353C282.632 179.924 281.852 179.144 280.643 177.935C282.866 175.166 286.064 173.801 290.315 173.801C298.076 173.801 303.185 178.949 303.185 187.061V188.27H307.475V191ZM315.759 165.767V184.136C315.759 188.699 313.848 191 310.026 191H306.633V188.309H309.129C310.806 188.309 311.898 187.763 312.444 186.671C312.834 185.969 313.029 184.721 313.029 182.927V165.767H315.759Z" fill="#F28D2B"/>
<path d="M20.44 136H11.984V103.072H1.12V96.016H31.304V103.072H20.44V136ZM73.1242 136L70.2122 126.48H55.6522L52.7402 136H43.6122L57.7242 95.848H68.0842L82.2522 136H73.1242ZM65.2842 110.072C65.0975 109.437 64.8549 108.635 64.5562 107.664C64.2575 106.693 63.9589 105.704 63.6602 104.696C63.3615 103.688 63.1189 102.811 62.9322 102.064C62.7455 102.811 62.4842 103.744 62.1482 104.864C61.8495 105.947 61.5509 106.992 61.2522 108C60.9909 108.971 60.7855 109.661 60.6362 110.072L57.7802 119.368H68.1962L65.2842 110.072ZM126.908 136L123.996 126.48H109.436L106.524 136H97.3962L111.508 95.848H121.868L136.036 136H126.908ZM119.068 110.072C118.882 109.437 118.639 108.635 118.34 107.664C118.042 106.693 117.743 105.704 117.444 104.696C117.146 103.688 116.903 102.811 116.716 102.064C116.53 102.811 116.268 103.744 115.932 104.864C115.634 105.947 115.335 106.992 115.036 108C114.775 108.971 114.57 109.661 114.42 110.072L111.564 119.368H121.98L119.068 110.072ZM203.09 96.016L192.898 136H183.266L177.834 115C177.722 114.589 177.573 113.973 177.386 113.152C177.237 112.331 177.05 111.435 176.826 110.464C176.639 109.493 176.471 108.579 176.322 107.72C176.173 106.824 176.061 106.133 175.986 105.648C175.949 106.133 175.837 106.824 175.65 107.72C175.501 108.579 175.333 109.493 175.146 110.464C174.959 111.397 174.773 112.293 174.586 113.152C174.399 113.973 174.25 114.608 174.138 115.056L168.762 136H159.13L148.938 96.016H157.282L162.378 117.856C162.527 118.491 162.695 119.275 162.882 120.208C163.069 121.104 163.255 122.056 163.442 123.064C163.629 124.035 163.797 124.987 163.946 125.92C164.133 126.853 164.263 127.656 164.338 128.328C164.413 127.619 164.525 126.816 164.674 125.92C164.823 124.987 164.991 124.053 165.178 123.12C165.365 122.149 165.533 121.253 165.682 120.432C165.869 119.573 166.037 118.901 166.186 118.416L172.01 96.016H180.018L185.842 118.416C185.954 118.901 186.103 119.573 186.29 120.432C186.477 121.253 186.663 122.149 186.85 123.12C187.037 124.091 187.205 125.043 187.354 125.976C187.503 126.872 187.615 127.656 187.69 128.328C187.802 127.395 187.97 126.293 188.194 125.024C188.418 123.717 188.661 122.411 188.922 121.104C189.221 119.797 189.463 118.715 189.65 117.856L194.746 96.016H203.09ZM245.469 136L242.557 126.48H227.997L225.085 136H215.957L230.069 95.848H240.429L254.597 136H245.469ZM237.629 110.072C237.442 109.437 237.199 108.635 236.901 107.664C236.602 106.693 236.303 105.704 236.005 104.696C235.706 103.688 235.463 102.811 235.277 102.064C235.09 102.811 234.829 103.744 234.493 104.864C234.194 105.947 233.895 106.992 233.597 108C233.335 108.971 233.13 109.661 232.981 110.072L230.125 119.368H240.541L237.629 110.072ZM310.229 136H299.477L282.061 105.76H281.837C281.874 106.693 281.911 107.645 281.949 108.616C281.986 109.549 282.023 110.501 282.061 111.472C282.135 112.405 282.191 113.357 282.229 114.328C282.266 115.261 282.303 116.213 282.341 117.184V136H274.781V96.016H285.477L302.837 125.976H303.005C302.967 125.043 302.93 124.128 302.893 123.232C302.855 122.299 302.818 121.384 302.781 120.488C302.781 119.555 302.762 118.64 302.725 117.744C302.687 116.811 302.65 115.877 302.613 114.944V96.016H310.229V136Z" fill="white"/>
<path d="M6.05078 221.957H14.0625C15.6484 221.957 16.8288 222.025 17.6035 222.162C18.3874 222.29 19.0846 222.563 19.6953 222.982C20.3151 223.402 20.8301 223.962 21.2402 224.664C21.6504 225.357 21.8555 226.136 21.8555 227.002C21.8555 227.941 21.6003 228.802 21.0898 229.586C20.5885 230.37 19.9049 230.958 19.0391 231.35C20.2604 231.705 21.1992 232.311 21.8555 233.168C22.5117 234.025 22.8398 235.032 22.8398 236.189C22.8398 237.101 22.6257 237.99 22.1973 238.855C21.778 239.712 21.1992 240.4 20.4609 240.92C19.7318 241.43 18.8294 241.745 17.7539 241.863C17.0794 241.936 15.4525 241.982 12.873 242H6.05078V221.957ZM10.0977 225.293V229.928H12.75C14.3268 229.928 15.3066 229.905 15.6895 229.859C16.3822 229.777 16.9245 229.54 17.3164 229.148C17.7174 228.747 17.918 228.223 17.918 227.576C17.918 226.956 17.7448 226.455 17.3984 226.072C17.0612 225.68 16.5553 225.443 15.8809 225.361C15.4798 225.316 14.3268 225.293 12.4219 225.293H10.0977ZM10.0977 233.264V238.623H13.8438C15.3021 238.623 16.2272 238.582 16.6191 238.5C17.2207 238.391 17.7083 238.126 18.082 237.707C18.4648 237.279 18.6562 236.709 18.6562 235.998C18.6562 235.396 18.5104 234.886 18.2188 234.467C17.9271 234.048 17.5033 233.742 16.9473 233.551C16.4004 233.359 15.2064 233.264 13.3652 233.264H10.0977ZM26.5241 221.957H30.571V232.812C30.571 234.535 30.6211 235.652 30.7214 236.162C30.8946 236.982 31.3047 237.643 31.9519 238.145C32.6081 238.637 33.5014 238.883 34.6316 238.883C35.78 238.883 36.6459 238.65 37.2292 238.186C37.8126 237.712 38.1635 237.133 38.282 236.449C38.4004 235.766 38.4597 234.631 38.4597 233.045V221.957H42.5066V232.484C42.5066 234.891 42.3972 236.59 42.1784 237.584C41.9597 238.577 41.5541 239.416 40.9616 240.1C40.3783 240.783 39.5945 241.33 38.6101 241.74C37.6257 242.141 36.3405 242.342 34.7546 242.342C32.8405 242.342 31.3868 242.123 30.3933 241.686C29.4089 241.239 28.6296 240.665 28.0554 239.963C27.4812 239.252 27.1029 238.509 26.9206 237.734C26.6563 236.586 26.5241 234.891 26.5241 232.648V221.957ZM46.0405 235.479L49.978 235.096C50.2149 236.417 50.6935 237.388 51.4135 238.008C52.1427 238.628 53.1225 238.938 54.353 238.938C55.6564 238.938 56.6362 238.664 57.2924 238.117C57.9578 237.561 58.2905 236.914 58.2905 236.176C58.2905 235.702 58.1492 235.301 57.8666 234.973C57.5932 234.635 57.1101 234.344 56.4174 234.098C55.9435 233.934 54.8634 233.642 53.1772 233.223C51.0079 232.685 49.4858 232.024 48.6108 231.24C47.3803 230.137 46.7651 228.793 46.7651 227.207C46.7651 226.186 47.0522 225.234 47.6264 224.35C48.2097 223.456 49.0437 222.777 50.1284 222.312C51.2221 221.848 52.5392 221.615 54.0795 221.615C56.5952 221.615 58.4864 222.167 59.7534 223.27C61.0294 224.372 61.6993 225.844 61.7631 227.686L57.7163 227.863C57.5431 226.833 57.1694 226.095 56.5952 225.648C56.0301 225.193 55.1778 224.965 54.0385 224.965C52.8627 224.965 51.9422 225.206 51.2768 225.689C50.8484 225.999 50.6342 226.414 50.6342 226.934C50.6342 227.408 50.8347 227.813 51.2358 228.15C51.7462 228.579 52.9858 229.025 54.9545 229.49C56.9233 229.955 58.3771 230.438 59.3159 230.939C60.2638 231.432 61.0021 232.111 61.5307 232.977C62.0685 233.833 62.3373 234.895 62.3373 236.162C62.3373 237.311 62.0183 238.386 61.3803 239.389C60.7423 240.391 59.8399 241.139 58.6733 241.631C57.5066 242.114 56.0528 242.355 54.312 242.355C51.7781 242.355 49.8321 241.772 48.4741 240.605C47.116 239.43 46.3048 237.721 46.0405 235.479ZM65.8986 242V221.957H69.9455V242H65.8986ZM74.1356 242V221.957H78.0731L86.2763 235.342V221.957H90.036V242H85.9755L77.8954 228.93V242H74.1356ZM94.609 242V221.957H109.47V225.348H98.6559V229.791H108.718V233.168H98.6559V238.623H109.853V242H94.609ZM112.539 235.479L116.477 235.096C116.714 236.417 117.192 237.388 117.912 238.008C118.642 238.628 119.621 238.938 120.852 238.938C122.155 238.938 123.135 238.664 123.791 238.117C124.457 237.561 124.789 236.914 124.789 236.176C124.789 235.702 124.648 235.301 124.366 234.973C124.092 234.635 123.609 234.344 122.916 234.098C122.442 233.934 121.362 233.642 119.676 233.223C117.507 232.685 115.985 232.024 115.11 231.24C113.879 230.137 113.264 228.793 113.264 227.207C113.264 226.186 113.551 225.234 114.125 224.35C114.709 223.456 115.543 222.777 116.627 222.312C117.721 221.848 119.038 221.615 120.578 221.615C123.094 221.615 124.985 222.167 126.252 223.27C127.528 224.372 128.198 225.844 128.262 227.686L124.215 227.863C124.042 226.833 123.668 226.095 123.094 225.648C122.529 225.193 121.677 224.965 120.537 224.965C119.362 224.965 118.441 225.206 117.776 225.689C117.347 225.999 117.133 226.414 117.133 226.934C117.133 227.408 117.334 227.813 117.735 228.15C118.245 228.579 119.485 229.025 121.453 229.49C123.422 229.955 124.876 230.438 125.815 230.939C126.763 231.432 127.501 232.111 128.03 232.977C128.567 233.833 128.836 234.895 128.836 236.162C128.836 237.311 128.517 238.386 127.879 239.389C127.241 240.391 126.339 241.139 125.172 241.631C124.006 242.114 122.552 242.355 120.811 242.355C118.277 242.355 116.331 241.772 114.973 240.605C113.615 239.43 112.804 237.721 112.539 235.479ZM131.495 235.479L135.433 235.096C135.67 236.417 136.148 237.388 136.868 238.008C137.597 238.628 138.577 238.938 139.808 238.938C141.111 238.938 142.091 238.664 142.747 238.117C143.412 237.561 143.745 236.914 143.745 236.176C143.745 235.702 143.604 235.301 143.321 234.973C143.048 234.635 142.565 234.344 141.872 234.098C141.398 233.934 140.318 233.642 138.632 233.223C136.463 232.685 134.94 232.024 134.065 231.24C132.835 230.137 132.22 228.793 132.22 227.207C132.22 226.186 132.507 225.234 133.081 224.35C133.664 223.456 134.498 222.777 135.583 222.312C136.677 221.848 137.994 221.615 139.534 221.615C142.05 221.615 143.941 222.167 145.208 223.27C146.484 224.372 147.154 225.844 147.218 227.686L143.171 227.863C142.998 226.833 142.624 226.095 142.05 225.648C141.485 225.193 140.633 224.965 139.493 224.965C138.317 224.965 137.397 225.206 136.731 225.689C136.303 225.999 136.089 226.414 136.089 226.934C136.089 227.408 136.289 227.813 136.69 228.15C137.201 228.579 138.44 229.025 140.409 229.49C142.378 229.955 143.832 230.438 144.771 230.939C145.718 231.432 146.457 232.111 146.985 232.977C147.523 233.833 147.792 234.895 147.792 236.162C147.792 237.311 147.473 238.386 146.835 239.389C146.197 240.391 145.295 241.139 144.128 241.631C142.961 242.114 141.508 242.355 139.767 242.355C137.233 242.355 135.287 241.772 133.929 240.605C132.571 239.43 131.759 237.721 131.495 235.479ZM158.524 235.479L162.461 235.096C162.698 236.417 163.177 237.388 163.897 238.008C164.626 238.628 165.606 238.938 166.836 238.938C168.14 238.938 169.12 238.664 169.776 238.117C170.441 237.561 170.774 236.914 170.774 236.176C170.774 235.702 170.633 235.301 170.35 234.973C170.077 234.635 169.594 234.344 168.901 234.098C168.427 233.934 167.347 233.642 165.661 233.223C163.491 232.685 161.969 232.024 161.094 231.24C159.864 230.137 159.249 228.793 159.249 227.207C159.249 226.186 159.536 225.234 160.11 224.35C160.693 223.456 161.527 222.777 162.612 222.312C163.706 221.848 165.023 221.615 166.563 221.615C169.079 221.615 170.97 222.167 172.237 223.27C173.513 224.372 174.183 225.844 174.247 227.686L170.2 227.863C170.027 226.833 169.653 226.095 169.079 225.648C168.513 225.193 167.661 224.965 166.522 224.965C165.346 224.965 164.426 225.206 163.76 225.689C163.332 225.999 163.118 226.414 163.118 226.934C163.118 227.408 163.318 227.813 163.719 228.15C164.23 228.579 165.469 229.025 167.438 229.49C169.407 229.955 170.86 230.438 171.799 230.939C172.747 231.432 173.485 232.111 174.014 232.977C174.552 233.833 174.821 234.895 174.821 236.162C174.821 237.311 174.502 238.386 173.864 239.389C173.226 240.391 172.323 241.139 171.157 241.631C169.99 242.114 168.536 242.355 166.795 242.355C164.262 242.355 162.316 241.772 160.958 240.605C159.599 239.43 158.788 237.721 158.524 235.479ZM177.685 232.102C177.685 230.06 177.99 228.346 178.601 226.961C179.057 225.94 179.676 225.024 180.46 224.213C181.253 223.402 182.119 222.8 183.058 222.408C184.307 221.88 185.747 221.615 187.378 221.615C190.331 221.615 192.692 222.531 194.46 224.363C196.238 226.195 197.126 228.743 197.126 232.006C197.126 235.242 196.247 237.775 194.488 239.607C192.728 241.43 190.377 242.342 187.433 242.342C184.452 242.342 182.083 241.435 180.323 239.621C178.564 237.798 177.685 235.292 177.685 232.102ZM181.855 231.965C181.855 234.234 182.379 235.957 183.427 237.133C184.475 238.299 185.806 238.883 187.419 238.883C189.032 238.883 190.354 238.304 191.384 237.146C192.423 235.98 192.943 234.234 192.943 231.91C192.943 229.613 192.437 227.9 191.425 226.77C190.422 225.639 189.087 225.074 187.419 225.074C185.751 225.074 184.407 225.648 183.386 226.797C182.365 227.936 181.855 229.659 181.855 231.965ZM200.687 242V222.121H204.734V238.623H214.797V242H200.687ZM217.948 221.957H221.995V232.812C221.995 234.535 222.045 235.652 222.145 236.162C222.318 236.982 222.728 237.643 223.376 238.145C224.032 238.637 224.925 238.883 226.055 238.883C227.204 238.883 228.07 238.65 228.653 238.186C229.236 237.712 229.587 237.133 229.706 236.449C229.824 235.766 229.883 234.631 229.883 233.045V221.957H233.93V232.484C233.93 234.891 233.821 236.59 233.602 237.584C233.383 238.577 232.978 239.416 232.385 240.1C231.802 240.783 231.018 241.33 230.034 241.74C229.049 242.141 227.764 242.342 226.178 242.342C224.264 242.342 222.811 242.123 221.817 241.686C220.833 241.239 220.053 240.665 219.479 239.963C218.905 239.252 218.527 238.509 218.344 237.734C218.08 236.586 217.948 234.891 217.948 232.648V221.957ZM243.001 242V225.348H237.054V221.957H252.982V225.348H247.048V242H243.001ZM255.764 242V221.957H259.811V242H255.764ZM263.139 232.102C263.139 230.06 263.445 228.346 264.055 226.961C264.511 225.94 265.131 225.024 265.915 224.213C266.708 223.402 267.574 222.8 268.513 222.408C269.761 221.88 271.201 221.615 272.833 221.615C275.786 221.615 278.147 222.531 279.915 224.363C281.692 226.195 282.581 228.743 282.581 232.006C282.581 235.242 281.701 237.775 279.942 239.607C278.183 241.43 275.832 242.342 272.888 242.342C269.907 242.342 267.537 241.435 265.778 239.621C264.019 237.798 263.139 235.292 263.139 232.102ZM267.309 231.965C267.309 234.234 267.833 235.957 268.882 237.133C269.93 238.299 271.261 238.883 272.874 238.883C274.487 238.883 275.809 238.304 276.839 237.146C277.878 235.98 278.397 234.234 278.397 231.91C278.397 229.613 277.891 227.9 276.88 226.77C275.877 225.639 274.542 225.074 272.874 225.074C271.206 225.074 269.861 225.648 268.841 226.797C267.82 227.936 267.309 229.659 267.309 231.965ZM286.074 242V221.957H290.011L298.214 235.342V221.957H301.974V242H297.914L289.834 228.93V242H286.074ZM305.522 235.479L309.459 235.096C309.696 236.417 310.175 237.388 310.895 238.008C311.624 238.628 312.604 238.938 313.834 238.938C315.138 238.938 316.117 238.664 316.774 238.117C317.439 237.561 317.772 236.914 317.772 236.176C317.772 235.702 317.63 235.301 317.348 234.973C317.074 234.635 316.591 234.344 315.899 234.098C315.425 233.934 314.345 233.642 312.658 233.223C310.489 232.685 308.967 232.024 308.092 231.24C306.862 230.137 306.246 228.793 306.246 227.207C306.246 226.186 306.533 225.234 307.108 224.35C307.691 223.456 308.525 222.777 309.61 222.312C310.703 221.848 312.02 221.615 313.561 221.615C316.076 221.615 317.968 222.167 319.235 223.27C320.511 224.372 321.181 225.844 321.244 227.686L317.198 227.863C317.024 226.833 316.651 226.095 316.076 225.648C315.511 225.193 314.659 224.965 313.52 224.965C312.344 224.965 311.423 225.206 310.758 225.689C310.33 225.999 310.115 226.414 310.115 226.934C310.115 227.408 310.316 227.813 310.717 228.15C311.227 228.579 312.467 229.025 314.436 229.49C316.405 229.955 317.858 230.438 318.797 230.939C319.745 231.432 320.483 232.111 321.012 232.977C321.55 233.833 321.819 234.895 321.819 236.162C321.819 237.311 321.5 238.386 320.862 239.389C320.224 240.391 319.321 241.139 318.155 241.631C316.988 242.114 315.534 242.355 313.793 242.355C311.259 242.355 309.313 241.772 307.955 240.605C306.597 239.43 305.786 237.721 305.522 235.479Z" fill="white"/>
<defs>
<clipPath id="clip0_24_18">
<rect width="403" height="249" fill="white" transform="translate(362)"/>
</clipPath>
</defs>
</svg>
